<svg xmlns="http://www.w3.org/2000/svg" viewBox="0 0 1200 800" role="img" aria-label="Fleet photo coming soon">
  <rect width="1200" height="800" fill="#1B1C1E"/>
  <path d="M0 44h1200M0 88h1200M0 132h1200M0 176h1200M0 220h1200M0 264h1200M0 308h1200M0 352h1200M0 396h1200M0 440h1200M0 484h1200M0 528h1200M0 572h1200M0 616h1200M0 660h1200M0 704h1200M0 748h1200M44 0v800M88 0v800M132 0v800M176 0v800M220 0v800M264 0v800M308 0v800M352 0v800M396 0v800M440 0v800M484 0v800M528 0v800M572 0v800M616 0v800M660 0v800M704 0v800M748 0v800M792 0v800M836 0v800M880 0v800M924 0v800M968 0v800M1012 0v800M1056 0v800M1100 0v800M1144 0v800M1188 0v800" stroke="rgba(255,255,255,0.05)" stroke-width="1"/>
  <g fill="rgba(255,255,255,0.14)" transform="translate(600,360) scale(0.28) translate(-811.5,-835.5)">
    <path d="M1063.32,532.68c21-39.95,53.89-75.17,94.27-101l-54.43-.45c-123.84,0-224.22,100.39-224.22,224.22,0,123.47,99.81,223.63,223.15,224.2,1.35-.06,8,0,9.4,0v-.26h114c49.34,0,84.55,42.09,84.55,91.43,0,1.11,0,2.2-.08,3.29.47,33.4-8.37,122.34-77.09,197.85a287.51,287.51,0,0,1-55.82,47.52H1237c129.76-8.37,232.41-116.79,232.41-248.66,0-135.39-96.43-245.57-230.79-248.65H1103.16c-36.14,0-65.44-30.58-65.45-66.71C1036.2,629.24,1039.44,578.15,1063.32,532.68Z"/>
    <path d="M1197.43,1135.82a250.06,250.06,0,0,0,47.56-79,89.21,89.21,0,0,1-24.28,3.37H1107.32l-229.57,0a23.81,23.81,0,0,0-2.51,0H785.56l-46.89,158.36,297.8.77C1057.89,1216.84,1136.06,1204.79,1197.43,1135.82Z"/>
    <path d="M1114.28,540.1a188.72,188.72,0,0,0-21.85,50.76,65.37,65.37,0,0,1,10.73-.89l374.49,2.42,46.7-157.72-230.71-1.9C1256.47,438.11,1163.89,460,1114.28,540.1Z"/>
    <path d="M559.33,978.58c-.83,2.89-1.67,5.76-2.54,8.61-2.35,8-3.68,12.46-3.71,12.55-.47,1.2-1,2.39-1.48,3.57-40,117.49-115,196.17-189.24,222.57a278.2,278.2,0,0,0,71.66,9.35c128.72,0,237.14-87.57,269.85-206.83l116-387H658.51C632.51,729.84,577.8,915.87,559.33,978.58Z"/>
    <path d="M463.54,1076.77a125.18,125.18,0,0,1-27.43,3c-69.46,0-125.78-56.76-125.78-126.79a127.08,127.08,0,0,1,11.19-52.34l-161.76-4.54A286.43,286.43,0,0,0,154.08,953a282.52,282.52,0,0,0,100.64,216.72c19.08,13.51,34.81,17,42.83,18.2C350.72,1195.82,414.79,1155,463.54,1076.77Z"/>
    <path d="M881.79,434.67h-587l-46.32,157.7,424.1,1.3v0h161.6Z"/>
  </g>
  <text x="600" y="620" text-anchor="middle" fill="rgba(255,255,255,0.35)" font-family="'IBM Plex Mono', ui-monospace, monospace" font-size="26" letter-spacing="4">FLEET PHOTO COMING SOON</text>
</svg>
